<?xml version="1.0" encoding="UTF-8"?>
<svg width="36px" height="28px" viewBox="0 0 36 28" version="1.1" xmlns="http://www.w3.org/2000/svg" xmlns:xlink="http://www.w3.org/1999/xlink">
    <!-- Generator: Sketch 43.2 (39069) - http://www.bohemiancoding.com/sketch -->
    <title>apisync-logo-white@2x</title>
    <desc>Created with Sketch.</desc>
    <defs></defs>
    <g id="Welcome" stroke="none" stroke-width="1" fill="none" fill-rule="evenodd">
        <g id="Desktop-HD" transform="translate(-255.000000, -15.000000)" fill="#FFFFFF">
            <g id="Header">
                <g id="apisync-logo-white" transform="translate(255.000000, 15.000000)">
                    <path d="M19.1147876,27.6037736 L16.0247651,18.9672759 L6.0755719,18.9672759 L3.01950572,27.6037736 L0.0992647059,27.6037736 L9.91263276,0.338443396 L12.3405076,0.338443396 L22.1029412,27.6037736 L19.1147876,27.6037736 Z M15.1249234,16.1255896 L12.2386387,7.71196934 C11.8651176,6.64710552 11.4802835,5.34080963 11.0841248,3.79304245 C10.8351108,4.98172764 10.4785733,6.28802354 10.0145016,7.71196934 L7.09426062,16.1255896 L15.1249234,16.1255896 Z" id="A"></path>
                    <path d="M35.8965993,20.3788325 C35.8965993,22.7685851 35.0280418,24.6320688 33.2909007,25.9693396 C31.5537597,27.3066105 29.1962465,27.9752358 26.2182904,27.9752358 C22.9921714,27.9752358 21.0441176,27.8679245 19.127068,27.6037736 L18.9264706,24.4339623 C20.0432041,24.9044835 21.0441176,24.9808373 22.6323529,25.0943396 C24.2205882,25.207842 25.0395156,25.207842 26.3299632,25.207842 C28.4393488,25.207842 30.0275682,24.808524 31.0946691,24.0098762 C32.16177,23.2112283 32.6953125,22.0999482 32.6953125,20.6760024 C32.6953125,19.7349599 32.506091,18.9641834 32.1276425,18.3636498 C31.7491939,17.7631161 31.1163877,17.2090238 30.229205,16.7013561 C29.3420222,16.1936885 27.9926561,15.6179277 26.1810662,14.9740566 C23.6498035,14.0701606 21.8413427,12.9991218 20.7556296,11.760908 C19.6699164,10.5226943 19.127068,8.90684959 19.127068,6.91332547 C19.127068,4.82074425 19.9149737,3.15537176 21.4908088,1.91715802 C23.0666439,0.678944281 25.1511819,0.0598466981 27.7444853,0.0598466981 C30.4494621,0.0598466981 32.9372589,0.555124764 35.2079504,1.54569575 L34.2215074,4.29451651 C31.9756322,3.35347407 29.7918305,2.88295991 27.6700368,2.88295991 C25.9949365,2.88295991 24.6858963,3.2420365 23.7428768,3.96020047 C22.7998574,4.67836444 22.3283548,5.67511155 22.3283548,6.9504717 C22.3283548,7.89151414 22.5020663,8.66229063 22.8494945,9.26282429 C23.1969227,9.86335796 23.783199,10.4143548 24.608341,10.9158314 C25.433483,11.4173079 26.6959933,11.9714003 28.3959099,12.578125 C31.2497845,13.5934603 33.2133448,14.683072 34.2866498,15.8469929 C35.3599548,17.0109138 35.8965993,18.5215119 35.8965993,20.3788325 Z" id="S"></path>
                </g>
            </g>
        </g>
    </g>
</svg>